<svg width="150" height="135" viewBox="0 0 150 135" fill="none" xmlns="http://www.w3.org/2000/svg">
<path d="M115.992 128.94C113.827 128.94 111.663 128.44 109.707 127.376L81.705 112.486C78.7721 112.423 75.8392 112.236 73.046 111.861C71.1605 111.611 69.5544 110.484 68.8561 108.857C68.1578 107.231 68.5069 105.479 69.7639 104.165C74.3728 99.3478 76.747 93.5921 76.747 87.461C76.747 72.321 61.8729 59.9964 43.577 59.9964C36.7335 59.9964 30.1693 61.6862 24.6526 64.9394C23.1164 65.8152 21.2309 65.9404 19.555 65.2522C17.9488 64.564 16.7618 63.187 16.5523 61.5604C16.3428 59.8087 16.2031 58.0576 16.2031 56.2433C16.2031 25.2124 46.2306 0 83.1017 0C119.973 0 150 25.2124 150 56.2433C150 73.2601 141.201 88.8999 125.699 99.598L128.073 116.615C128.632 120.87 126.537 124.874 122.556 127.188C120.601 128.315 118.297 128.94 115.992 128.94ZM83.0318 103.039C84.0095 102.976 84.9871 103.227 85.8251 103.728L115.084 119.306C115.853 119.744 116.481 119.556 116.9 119.306C117.249 119.118 117.808 118.617 117.668 117.742L114.945 97.9714C114.735 96.2197 115.573 94.5311 117.11 93.5301C131.355 84.5838 139.525 70.9447 139.525 56.1175C139.525 30.2797 114.246 9.25903 83.1017 9.25903C53.1439 9.25903 28.5632 28.7786 26.7476 53.3028C31.9849 51.4885 37.6413 50.4874 43.5072 50.4874C67.5991 50.4874 87.1519 67.0033 87.1519 87.3359C87.2217 92.8413 85.7553 98.1591 83.0318 103.039Z" fill="#292D32"/>
<path d="M23.184 134.446C21.3684 134.446 19.6226 134.008 18.0165 133.069C14.8741 131.255 13.1982 128.127 13.6172 124.811L15.0137 115.177C5.58651 108.295 0 98.0973 0 87.3992C0 75.1997 7.12286 63.8134 19.064 56.9942C26.2566 52.8026 34.776 50.5505 43.6446 50.5505C67.7366 50.5505 87.2894 67.0666 87.2894 87.3992C87.2894 95.6574 83.9375 103.79 77.7923 110.234C69.9014 118.805 58.0997 123.81 45.111 124.186L28.0722 133.257C26.5359 134.07 24.86 134.446 23.184 134.446ZM43.5747 59.9346C36.7313 59.9346 30.1671 61.6237 24.6504 64.8769C15.712 70.007 10.4049 78.3903 10.4049 87.3992C10.4049 96.0953 15.1535 104.041 23.5332 109.171C25.1393 110.172 25.9773 111.861 25.7678 113.613L24.2315 124.311L40.9212 115.427C41.7591 114.989 42.6669 114.739 43.5747 114.739C53.8399 114.739 63.5467 110.797 69.6919 104.103C74.3007 99.2234 76.7448 93.4677 76.7448 87.3366C76.7448 72.2592 61.8708 59.9346 43.5747 59.9346Z" fill="#292D32"/>
</svg>
