<svg width="126" height="144" viewBox="0 0 126 144" fill="none" xmlns="http://www.w3.org/2000/svg">
<path d="M49.968 60.408C45.864 60.408 42.624 64.008 42.624 68.4C42.624 72.792 45.936 76.392 49.968 76.392C54.072 76.392 57.312 72.792 57.312 68.4C57.384 64.008 54.072 60.408 49.968 60.408ZM76.248 60.408C72.144 60.408 68.904 64.008 68.904 68.4C68.904 72.792 72.216 76.392 76.248 76.392C80.352 76.392 83.592 72.792 83.592 68.4C83.592 64.008 80.352 60.408 76.248 60.408Z" fill="#7289DA"/>
<path d="M111.24 0H14.76C6.624 0 0 6.624 0 14.832V112.176C0 120.384 6.624 127.008 14.76 127.008H96.408L92.592 113.688L101.808 122.256L110.52 130.32L126 144V14.832C126 6.624 119.376 0 111.24 0ZM83.448 94.032C83.448 94.032 80.856 90.936 78.696 88.2C88.128 85.536 91.728 79.632 91.728 79.632C88.776 81.576 85.968 82.944 83.448 83.88C79.848 85.392 76.392 86.4 73.008 86.976C66.096 88.272 59.76 87.912 54.36 86.904C50.256 86.112 46.728 84.96 43.776 83.808C42.12 83.16 40.32 82.368 38.52 81.36C38.304 81.216 38.088 81.144 37.872 81C37.728 80.928 37.656 80.856 37.584 80.784C36.288 80.064 35.568 79.56 35.568 79.56C35.568 79.56 39.024 85.32 48.168 88.056C46.008 90.792 43.344 94.032 43.344 94.032C27.432 93.528 21.384 83.088 21.384 83.088C21.384 59.904 31.752 41.112 31.752 41.112C42.12 33.336 51.984 33.552 51.984 33.552L52.704 34.416C39.744 38.16 33.768 43.848 33.768 43.848C33.768 43.848 35.352 42.984 38.016 41.76C45.72 38.376 51.84 37.44 54.36 37.224C54.792 37.152 55.152 37.08 55.584 37.08C59.976 36.504 64.944 36.36 70.128 36.936C76.968 37.728 84.312 39.744 91.8 43.848C91.8 43.848 86.112 38.448 73.872 34.704L74.88 33.552C74.88 33.552 84.744 33.336 95.112 41.112C95.112 41.112 105.48 59.904 105.48 83.088C105.48 83.088 99.36 93.528 83.448 94.032Z" fill="#7289DA"/>
</svg>
