<svg width="269" height="269" viewBox="0 0 269 269" fill="none" xmlns="http://www.w3.org/2000/svg">
<path d="M268.528 190.521C268.528 239.393 239.393 268.528 190.521 268.528H174.543C167.159 268.528 161.117 262.486 161.117 255.102V177.631C161.117 174.006 164.071 170.918 167.696 170.918L191.326 170.515C193.206 170.381 194.817 169.039 195.22 167.159L199.919 141.514C200.322 139.098 198.442 136.815 195.891 136.815L167.293 137.218C163.534 137.218 160.58 134.264 160.446 130.639L159.909 97.7443C159.909 95.5961 161.654 93.7165 163.937 93.7165L196.16 93.1793C198.442 93.1793 200.188 91.434 200.188 89.1515L199.651 56.9279C199.651 54.6454 197.905 52.9001 195.623 52.9001L159.372 53.4373C137.084 53.8401 119.361 72.0999 119.764 94.3877L120.435 131.31C120.569 135.07 117.615 138.024 113.856 138.158L97.7443 138.426C95.4618 138.426 93.7165 140.172 93.7165 142.454L94.1193 167.964C94.1193 170.247 95.8646 171.992 98.1471 171.992L114.259 171.724C118.018 171.724 120.972 174.678 121.106 178.303L122.315 254.833C122.449 262.352 116.407 268.528 108.888 268.528H78.0075C29.1353 268.528 0 239.393 0 190.387V78.0075C0 29.1353 29.1353 0 78.0075 0H190.521C239.393 0 268.528 29.1353 268.528 78.0075V190.521Z" fill="black"/>
</svg>
