<svg width="223" height="227" viewBox="0 0 223 227" fill="none" xmlns="http://www.w3.org/2000/svg">
<path d="M221.331 102.737C220.765 96.9598 215.894 92.6556 210.117 92.6556H124.598C118.368 92.6556 113.271 97.7528 113.271 103.983V123.352C113.271 129.582 118.368 134.679 124.598 134.679H175.683C174.437 145.1 167.641 160.845 152.576 171.379C142.948 178.062 130.148 182.706 113.271 182.706C112.478 182.706 111.798 182.706 111.005 182.593C82.1214 181.686 57.6549 162.317 48.8197 135.698C46.4411 128.562 45.0818 121.087 45.0818 113.271C45.0818 105.455 46.4411 97.866 48.7065 90.8432C49.3861 88.8042 50.179 86.7656 51.0852 84.7267C61.5061 61.2796 84.2735 44.742 111.005 43.9491C111.685 43.8358 112.478 43.8358 113.271 43.8358C129.468 43.8358 141.588 49.1594 150.084 55.0495C154.501 58.1078 160.391 57.4282 164.243 53.6903L179.987 38.2856C184.971 33.4149 184.518 25.146 178.854 21.0683C160.844 7.81557 138.87 0 113.271 0C112.478 0 111.798 0.000113319 111.005 0.113384C67.6227 0.90628 30.3566 26.0524 12.12 62.4124C4.41757 77.8172 0 95.0342 0 113.271C0 131.507 4.41757 148.725 12.12 164.129H12.2333C30.4699 200.489 67.736 225.636 111.005 226.428C111.798 226.542 112.478 226.542 113.271 226.542C143.854 226.542 169.566 216.461 188.256 199.13C209.664 179.308 222.011 150.31 222.011 115.763C222.011 110.892 221.784 106.701 221.331 102.737Z" fill="black"/>
</svg>
