<svg width="93" height="80" viewBox="0 0 93 80" fill="none" xmlns="http://www.w3.org/2000/svg">
<path d="M61.5021 40.1249C61.5021 48.6063 54.6182 55.46 46.0994 55.46C37.5806 55.46 30.6969 48.6063 30.6969 40.1249C30.6969 31.6435 37.5806 24.79 46.0994 24.79C54.6182 24.79 61.5021 31.6435 61.5021 40.1249Z" stroke="#060606" stroke-width="8" stroke-linecap="round" stroke-linejoin="round"/>
<path d="M46.0993 75.5498C61.2869 75.5498 75.4419 66.64 85.2944 51.2193C89.1666 45.1795 89.1666 35.0275 85.2944 28.9876C75.4419 13.5668 61.2869 4.65704 46.0993 4.65704C30.9117 4.65704 16.7567 13.5668 6.90414 28.9876C3.03195 35.0275 3.03195 45.1795 6.90414 51.2193C16.7567 66.64 30.9117 75.5498 46.0993 75.5498Z" stroke="#060606" stroke-width="8" stroke-linecap="round" stroke-linejoin="round"/>
</svg>
