<svg width="223" height="223" viewBox="0 0 223 223" fill="none" xmlns="http://www.w3.org/2000/svg">
<path d="M111.005 0C80.8489 0 77.0839 0.138757 65.2434 0.666032C53.4213 1.22106 45.3734 3.0804 38.2968 5.82778C30.9982 8.65841 24.8004 12.4603 18.6304 18.6304C12.4603 24.8004 8.64916 30.989 5.82778 38.2968C3.0804 45.3734 1.21181 53.4213 0.666032 65.2434C0.111005 77.0839 0 80.8489 0 111.005C0 141.162 0.138757 144.927 0.666032 156.767C1.22106 168.58 3.0804 176.637 5.82778 183.714C8.61486 191.122 12.9839 197.833 18.6304 203.38C24.174 209.031 30.8863 213.4 38.2968 216.183C45.3827 218.921 53.4306 220.799 65.2434 221.345C77.0839 221.9 80.8489 222.011 111.005 222.011C141.162 222.011 144.927 221.872 156.767 221.345C168.58 220.79 176.637 218.921 183.714 216.183C191.12 213.392 197.831 209.024 203.38 203.38C209.033 197.838 213.402 191.125 216.183 183.714C218.921 176.637 220.799 168.58 221.345 156.767C221.9 144.927 222.011 141.162 222.011 111.005C222.011 80.8489 221.872 77.0839 221.345 65.2434C220.79 53.4306 218.921 45.3642 216.183 38.2968C213.394 30.8893 209.026 24.1781 203.38 18.6304C197.841 12.9751 191.127 8.60467 183.714 5.82778C176.637 3.0804 168.58 1.21181 156.767 0.666032C144.927 0.111005 141.162 0 111.005 0ZM111.005 19.981C140.634 19.981 144.168 20.129 155.87 20.6377C166.693 21.1465 172.567 22.9411 176.471 24.4767C181.669 26.484 185.351 28.8891 189.255 32.7651C193.131 36.6503 195.536 40.3412 197.543 45.5399C199.06 49.4436 200.873 55.3177 201.364 66.1407C201.891 77.8517 202.011 81.3669 202.011 111.005C202.011 140.644 201.872 144.168 201.327 155.87C200.762 166.693 198.959 172.567 197.432 176.471C195.626 181.288 192.788 185.651 189.116 189.255C185.528 192.93 181.168 195.761 176.35 197.543C172.465 199.06 166.499 200.873 155.676 201.364C143.891 201.891 140.422 202.011 110.728 202.011C81.0246 202.011 77.5557 201.872 65.7799 201.327C54.9476 200.762 48.9811 198.959 45.0959 197.432C40.2755 195.649 35.9165 192.807 32.3396 189.116C28.6263 185.552 25.7783 181.185 24.0142 176.35C22.4878 172.465 20.6932 166.499 20.129 155.676C19.7127 144.02 19.5647 140.422 19.5647 110.867C19.5647 81.3021 19.7127 77.6945 20.129 65.9002C20.6932 55.0771 22.4878 49.1199 24.0142 45.2347C25.9567 39.9619 28.4451 36.3542 32.3396 32.4598C36.2155 28.5839 39.8324 26.0863 45.0959 24.1529C48.9811 22.6173 54.8181 20.8135 65.6411 20.2585C77.4355 19.8422 80.9044 19.7034 110.589 19.7034L111.005 19.981ZM111.005 54.0041C103.52 54.0041 96.1076 55.4785 89.1919 58.3431C82.2762 61.2076 75.9924 65.4063 70.6994 70.6994C65.4063 75.9924 61.2076 82.2762 58.343 89.1919C55.4785 96.1076 54.0041 103.52 54.0041 111.005C54.0041 118.491 55.4785 125.903 58.343 132.819C61.2076 139.734 65.4063 146.018 70.6994 151.311C75.9924 156.604 82.2762 160.803 89.1919 163.668C96.1076 166.532 103.52 168.007 111.005 168.007C126.123 168.007 140.621 162.001 151.311 151.311C162.001 140.621 168.007 126.123 168.007 111.005C168.007 95.8877 162.001 81.3892 151.311 70.6994C140.621 60.0096 126.123 54.0041 111.005 54.0041ZM111.005 148.007C90.5618 148.007 74.0035 131.449 74.0035 111.005C74.0035 90.5618 90.5618 74.0035 111.005 74.0035C131.449 74.0035 148.007 90.5618 148.007 111.005C148.007 131.449 131.449 148.007 111.005 148.007ZM183.584 51.7562C183.456 55.2032 181.996 58.4661 179.512 60.8593C177.028 63.2525 173.713 64.5896 170.264 64.5896C166.814 64.5896 163.499 63.2525 161.015 60.8593C158.531 58.4661 157.072 55.2032 156.943 51.7562C156.943 48.2234 158.346 44.8352 160.845 42.3371C163.343 39.839 166.731 38.4356 170.264 38.4356C173.797 38.4356 177.185 39.839 179.683 42.3371C182.181 44.8352 183.584 48.2234 183.584 51.7562Z" fill="black"/>
</svg>
