<svg width="96" height="64" viewBox="0 0 96 64" fill="none" xmlns="http://www.w3.org/2000/svg">
<path d="M78 31.9999C78 39.1899 67.4971 45 54.4999 45C41.5026 45 31 39.1899 31 31.9999C31 24.8099 41.5026 19 54.4999 19C67.4971 19 78 24.8099 78 31.9999Z" stroke="#292D32" stroke-width="2" stroke-linecap="round" stroke-linejoin="round"/>
<path d="M48.0001 62.9103C64.9556 62.9103 80.7583 55.1295 91.7578 41.6626C96.0807 36.3881 96.0807 27.5224 91.7578 22.2477C80.7583 8.78087 64.9556 1 48.0001 1C31.0444 1 15.2417 8.78087 4.2422 22.2477C-0.0807342 27.5224 -0.0807342 36.3881 4.2422 41.6626C15.2417 55.1295 31.0444 62.9103 48.0001 62.9103Z" stroke="#292D32" stroke-width="2" stroke-linecap="round" stroke-linejoin="round"/>
</svg>
