<svg width="223" height="226" viewBox="0 0 223 226" fill="none" xmlns="http://www.w3.org/2000/svg">
<path d="M63.2711 225.043H34.1656C27.9394 225.043 23.9824 220.082 25.3889 213.978L26.786 207.658H46.2054C52.4503 207.658 58.7327 202.66 60.1017 196.575L70.0786 153.517C71.4852 147.441 77.7301 142.452 83.9563 142.452H92.236C127.765 142.452 155.379 135.148 175.127 120.51C194.874 105.873 204.757 86.754 204.757 62.9838C204.757 52.435 202.929 43.7146 199.244 36.832C199.244 36.682 199.094 36.5413 199.094 36.4007L200.36 37.1039C207.392 41.4641 212.737 47.0808 216.403 54.1134C220.192 61.146 222.011 69.8664 222.011 80.284C222.011 104.054 212.174 123.173 192.343 137.811C172.651 152.298 144.943 159.602 109.508 159.602H101.069C94.8802 159.602 88.5603 164.525 87.1538 170.723L77.1675 213.903C75.7704 219.951 69.5723 224.874 63.3836 224.874L63.2711 225.043ZM38.1695 199.772H9.05455C2.83774 199.772 -1.10989 194.812 0.277877 188.708L41.2825 11.0834C42.6984 4.96032 48.9246 0 55.1696 0H115.79C128.871 0 140.254 0.918925 149.997 2.70989C159.702 4.4821 168 7.57644 175.164 11.9929C182.066 16.3531 187.56 22.0448 191.077 29.0399C194.724 36.0537 196.553 44.7929 196.553 55.2668C196.553 79.0369 186.698 98.1562 166.885 112.643C147.193 127.28 119.476 134.454 84.0313 134.454H75.7516C69.5629 134.454 63.2992 139.367 61.8927 145.415L51.9439 188.445C50.5468 194.503 44.2831 199.435 38.0194 199.435L38.1695 199.772ZM107.989 36.907H98.4809C92.236 36.907 85.991 41.8673 84.6033 47.9529L75.8829 85.6475C74.4764 91.7237 78.4146 96.7028 84.6033 96.7028H91.7859C107.389 96.7028 119.635 93.4865 128.355 87.1291C137.066 80.6966 141.436 71.6199 141.436 59.8239C141.436 52.0411 138.614 46.2744 132.997 42.5706C127.371 38.7824 118.932 36.8976 107.811 36.8976L107.989 36.907Z" fill="black"/>
</svg>
