<svg width="123" height="144" viewBox="0 0 123 144" fill="none" xmlns="http://www.w3.org/2000/svg">
<g clip-path="url(#clip0)">
<path d="M34.6723 139.118L37.168 123.266L31.6088 123.137H5.06299L23.5109 6.16515C23.5682 5.81203 23.7543 5.48277 24.0263 5.24895C24.2983 5.01513 24.6466 4.88629 25.0093 4.88629H69.7692C84.6288 4.88629 94.8835 7.97845 100.237 14.0816C102.747 16.9447 104.346 19.9367 105.119 23.2293C105.93 26.6841 105.945 30.8117 105.152 35.846L105.095 36.2135V39.4392L107.605 40.8612C109.719 41.9826 111.399 43.2662 112.687 44.736C114.835 47.1839 116.223 50.2952 116.81 53.9838C117.416 57.7774 117.216 62.2916 116.223 67.4022C115.078 73.2812 113.226 78.4014 110.726 82.591C108.426 86.4515 105.496 89.6534 102.017 92.1347C98.6962 94.492 94.7498 96.2815 90.2882 97.4267C85.9649 98.5528 81.0356 99.1207 75.6291 99.1207H72.1456C69.6547 99.1207 67.2354 100.018 65.3362 101.626C63.4322 103.267 62.1725 105.51 61.7859 107.963L61.5235 109.39L57.1143 137.329L56.9139 138.355C56.8614 138.679 56.7707 138.842 56.6371 138.951C56.5178 139.051 56.346 139.118 56.179 139.118H34.6723Z" fill="#253B80"/>
<path d="M109.981 36.5857C109.847 37.4399 109.695 38.3131 109.523 39.2102C103.62 69.5162 83.4257 79.9856 57.6339 79.9856H44.5018C41.3476 79.9856 38.6897 82.2761 38.1982 85.3874L31.4746 128.029L29.5707 140.116C29.2509 142.158 30.8256 144 32.8871 144H56.1785C58.9366 144 61.2796 141.996 61.7138 139.276L61.9429 138.092L66.3282 110.263L66.6097 108.736C67.0392 106.007 69.3869 104.002 72.1451 104.002H75.6285C98.1946 104.002 115.86 94.8404 121.023 68.328C123.18 57.2526 122.063 48.0047 116.356 41.5007C114.629 39.5395 112.486 37.9123 109.981 36.5857Z" fill="#179BD7"/>
<path d="M103.806 34.1233C102.904 33.8609 101.974 33.6223 101.019 33.4076C100.06 33.1976 99.0772 33.0115 98.0656 32.8493C94.5249 32.2766 90.6454 32.0046 86.4891 32.0046H51.4065C50.5428 32.0046 49.722 32.2003 48.9871 32.5534C47.3695 33.3312 46.167 34.863 45.8759 36.7383L38.4127 84.0082L38.198 85.3873C38.6895 82.276 41.3474 79.9855 44.5016 79.9855H57.6337C83.4256 79.9855 103.62 69.5113 109.523 39.2101C109.699 38.313 109.847 37.4398 109.981 36.5856C108.487 35.7935 106.87 35.1159 105.128 34.5385C104.698 34.3953 104.255 34.257 103.806 34.1233Z" fill="#222D65"/>
<path d="M45.8765 36.7384C46.1676 34.8631 47.3701 33.3313 48.9877 32.5583C49.7274 32.2052 50.5433 32.0095 51.407 32.0095H86.4897C90.6459 32.0095 94.5254 32.2815 98.0662 32.8542C99.0778 33.0164 100.061 33.2025 101.02 33.4125C101.974 33.6272 102.905 33.8658 103.807 34.1282C104.255 34.2619 104.699 34.4002 105.133 34.5386C106.875 35.116 108.493 35.7984 109.986 36.5857C111.742 25.3862 109.972 17.7608 103.916 10.8559C97.2406 3.2544 85.1917 0 69.7739 0H25.014C21.8645 0 19.178 2.29049 18.6913 5.4065L0.0476651 123.581C-0.319767 125.919 1.48399 128.029 3.84128 128.029H31.475L38.4133 84.0083L45.8765 36.7384Z" fill="#253B80"/>
</g>
<defs>
<clipPath id="clip0">
<rect width="122.046" height="144" fill="white"/>
</clipPath>
</defs>
</svg>
