<svg width="127" height="144" viewBox="0 0 127 144" fill="none" xmlns="http://www.w3.org/2000/svg">
<path d="M110.354 28.2774C110.255 27.557 109.624 27.1588 109.103 27.115C108.583 27.0713 97.5716 26.2553 97.5716 26.2553C97.5716 26.2553 89.9242 18.6632 89.0853 17.8231C88.2451 16.983 86.6052 17.2385 85.9688 17.4261C85.8744 17.4537 84.2978 17.9405 81.6888 18.7472C79.1339 11.3968 74.6261 4.64137 66.6945 4.64137C66.4758 4.64137 66.2502 4.65057 66.0247 4.66323C63.769 1.68025 60.9748 0.384399 58.5614 0.384399C40.0858 0.384399 31.2589 23.4807 28.4911 35.2181C21.3121 37.4427 16.2116 39.024 15.5602 39.2288C11.553 40.4855 11.4264 40.6121 10.9004 44.388C10.5034 47.2467 0.0180664 128.335 0.0180664 128.335L81.7222 143.644L125.993 134.066C125.993 134.066 110.452 28.9978 110.354 28.2774ZM77.1729 20.1444C75.1209 20.7796 72.7882 21.5012 70.2598 22.2838C70.2621 21.797 70.2644 21.3171 70.2644 20.7934C70.2644 16.2246 69.6303 12.5465 68.6129 9.63027C72.6996 10.1435 75.4213 14.793 77.1729 20.1444ZM63.5435 10.536C64.6793 13.3832 65.4182 17.4687 65.4182 22.9824C65.4182 23.2643 65.4159 23.5221 65.4136 23.7833C60.9172 25.1759 56.0319 26.6881 51.1351 28.2049C53.8844 17.5941 59.0379 12.4694 63.5435 10.536ZM58.0539 5.33993C58.8515 5.33993 59.6547 5.61038 60.4235 6.13977C54.5024 8.92596 48.1555 15.9438 45.4752 29.9576C41.5577 31.1706 37.7289 32.356 34.1889 33.4527C37.3284 22.7637 44.7836 5.33993 58.0539 5.33993Z" fill="#95BF46"/>
<path d="M109.103 27.115C108.583 27.0713 97.5716 26.2553 97.5716 26.2553C97.5716 26.2553 89.9243 18.6632 89.0853 17.8231C88.7711 17.5101 88.3476 17.3501 87.9045 17.2811L81.7268 143.642L125.993 134.066C125.993 134.066 110.452 28.9978 110.354 28.2774C110.255 27.5569 109.624 27.1588 109.103 27.115Z" fill="#5E8E3E"/>
<path d="M66.6946 51.5762L61.2362 67.8134C61.2362 67.8134 56.4533 65.2609 50.5909 65.2609C41.9964 65.2609 41.5637 70.6549 41.5637 72.014C41.5637 79.43 60.8955 82.2715 60.8955 99.6423C60.8955 113.309 52.2274 122.109 40.5394 122.109C26.5141 122.109 19.342 113.38 19.342 113.38L23.0972 100.973C23.0972 100.973 30.4695 107.302 36.691 107.302C40.7558 107.302 42.4095 104.102 42.4095 101.763C42.4095 92.0893 26.5498 91.6577 26.5498 75.7623C26.5498 62.3838 36.1524 49.4368 55.536 49.4368C63.005 49.4368 66.6946 51.5762 66.6946 51.5762Z" fill="white"/>
</svg>
