<svg width="223" height="181" viewBox="0 0 223 181" fill="none" xmlns="http://www.w3.org/2000/svg">
<path d="M221.576 21.4926C213.265 25.1519 204.46 27.5674 195.444 28.6614C204.936 22.9564 212.043 14.0097 215.452 3.47344C206.656 8.60723 196.906 12.3442 186.527 14.4255C179.68 7.10344 170.607 2.24708 160.716 0.610565C150.826 -1.02595 140.672 0.648943 131.831 5.37517C122.99 10.1014 115.957 17.6145 111.824 26.7477C107.691 35.881 106.69 46.1233 108.975 55.8843C71.1422 54.099 37.6107 35.9319 15.1701 8.46847C11.0889 15.4043 8.9602 23.3151 9.00956 31.3624C9.00956 47.18 17.0571 61.0828 29.2487 69.2506C22.0231 69.0206 14.9571 67.067 8.63955 63.5526V64.1168C8.63546 74.6285 12.2681 84.8179 18.9211 92.9563C25.574 101.095 34.8377 106.681 45.1403 108.767C38.4645 110.556 31.4725 110.824 24.6792 109.553C27.6045 118.599 33.2801 126.506 40.9144 132.172C48.5487 137.838 57.761 140.981 67.2664 141.161C51.1666 153.795 31.288 160.653 10.8226 160.632C7.21505 160.632 3.61677 160.419 0 160.012C20.8654 173.372 45.1265 180.464 69.9027 180.446C153.653 180.446 199.394 111.107 199.394 51.0742C199.394 49.141 199.394 47.1892 199.256 45.2467C208.191 38.8165 215.898 30.8333 222.011 21.6776L221.576 21.4926Z" fill="black"/>
</svg>
