<svg width="223" height="224" viewBox="0 0 223 224" fill="none" xmlns="http://www.w3.org/2000/svg">
<path d="M161.865 133.675C159.104 132.29 145.525 125.617 142.997 124.687C140.46 123.767 138.619 123.311 136.77 126.081C134.939 128.842 129.641 135.06 128.033 136.9C126.425 138.75 124.807 138.973 122.047 137.597C119.287 136.203 110.382 133.294 99.833 123.888C91.6259 116.564 86.077 107.52 84.4691 104.75C82.8611 101.99 84.3017 100.493 85.6773 99.1177C86.9228 97.8815 88.4471 95.8925 89.8227 94.2845C91.2076 92.6673 91.663 91.5147 92.5925 89.6651C93.5127 87.8248 93.0572 86.2168 92.3601 84.8319C91.6631 83.447 86.1421 69.8491 83.8463 64.3188C81.597 58.9373 79.3199 59.6715 77.6283 59.5786C75.8632 59.5083 74.0968 59.4773 72.3303 59.4856C70.49 59.4856 67.4972 60.1734 64.969 62.9432C62.4409 65.7037 55.3027 72.3865 55.3027 85.9845C55.3027 99.5731 65.2014 112.706 66.577 114.556C67.9619 116.396 86.0584 144.299 113.766 156.261C120.355 159.105 125.495 160.806 129.511 162.07C136.128 164.18 142.151 163.882 146.901 163.167C152.208 162.377 163.241 156.484 165.546 150.033C167.851 143.583 167.851 138.053 167.154 136.9C166.466 135.748 164.635 135.06 161.865 133.675ZM111.47 202.483H111.433C94.9791 202.484 78.828 198.06 64.6716 189.675L61.3163 187.686L26.5453 196.813L35.8213 162.906L33.6371 159.43C24.4395 144.784 19.5738 127.835 19.6022 110.541C19.6115 59.8853 60.833 18.6732 111.507 18.6732C136.045 18.6732 159.114 28.2466 176.457 45.6088C185.015 54.1284 191.797 64.2605 196.413 75.4188C201.028 86.5771 203.385 98.5399 203.347 110.615C203.319 161.27 162.107 202.483 111.47 202.483ZM189.665 32.4198C179.424 22.1115 167.239 13.9379 153.817 8.37293C140.394 2.80793 126 -0.037887 111.47 0.000380869C50.5439 0.000380869 0.957341 49.5869 0.929457 110.531C0.929457 130.013 6.01359 149.03 15.6892 165.788L0 223.07L58.6023 207.697C74.8082 216.526 92.9683 221.153 111.423 221.155H111.47C172.386 221.155 221.982 171.569 222.01 110.615C222.055 96.0902 219.22 81.7006 213.668 68.2786C208.116 54.8566 199.957 42.6687 189.665 32.4198Z" fill="black"/>
</svg>
