<svg width="161" height="161" viewBox="0 0 161 161" fill="none" xmlns="http://www.w3.org/2000/svg">
<path d="M80.5 0C36.1445 0 0 36.1445 0 80.5C0 124.856 36.1445 161 80.5 161C124.856 161 161 124.856 161 80.5C161 36.1445 124.856 0 80.5 0ZM107.548 99.015C109.882 101.35 109.882 105.213 107.548 107.548C106.34 108.755 104.811 109.319 103.282 109.319C101.752 109.319 100.223 108.755 99.015 107.548L80.5 89.033L61.985 107.548C60.7775 108.755 59.248 109.319 57.7185 109.319C56.189 109.319 54.6595 108.755 53.452 107.548C51.1175 105.213 51.1175 101.35 53.452 99.015L71.967 80.5L53.452 61.985C51.1175 59.6505 51.1175 55.7865 53.452 53.452C55.7865 51.1175 59.6505 51.1175 61.985 53.452L80.5 71.967L99.015 53.452C101.35 51.1175 105.213 51.1175 107.548 53.452C109.882 55.7865 109.882 59.6505 107.548 61.985L89.033 80.5L107.548 99.015Z" fill="#292D32"/>
</svg>
